<svg xmlns="http://www.w3.org/2000/svg" viewBox="0 0 24 24"><circle cx="12" cy="12" r="11" fill="#E83829"/><circle cx="12" cy="12" r="9" fill="#0377BD"/><circle cx="12" cy="12" r="9" fill="#F3F3F3"/><path fill="#FFF" d="M12 20.5c-3.926 0-7.273-2.45-8.616-5.902C4.5 18.3 7.934 21 12 21s7.5-2.699 8.616-6.402C19.273 18.049 15.926 20.5 12 20.5z" opacity=".2"/><path fill="#010101" d="M12 3.5c3.926 0 7.273 2.45 8.616 5.902C19.5 5.7 16.066 3 12 3S4.5 5.699 3.384 9.402C4.727 5.951 8.074 3.5 12 3.5z" opacity=".1"/><path fill="#E83829" d="M11 0h2v4.5h-2zM11 19.5h2V24h-2z"/><path fill="#E83829" d="M20.75 9.75h2v4.5h-2z" transform="rotate(90 21.75 12)"/><path fill="#E83829" d="M1.25 9.75h2v4.5h-2z" transform="rotate(90 2.25 12)"/><path fill="#E83829" d="M12 5s-5 6.239-5 9a5 5 0 0 0 10 0c0-2.761-5-9-5-9z"/><path fill="#E83829" d="M12 19c-2.761 0-5-2.239-5-5s5-9 5-9"/><path fill="#FFF" d="M12 19c-2.761 0-5-2.239-5-5s5-9 5-9" opacity=".1"/><path fill="#E83829" d="M12 19c-1.657 0-3-2.239-3-5s3-9 3-9"/><path fill="#FFF" d="M7.25 14c0-2.392 4.75-9 4.75-9s-5 6.239-5 9 2.239 5 5 5v-.025c-2.643-.133-4.75-2.3-4.75-4.975z" opacity=".1"/><path fill="#E83829" d="M12 19c2.761 0 5-2.239 5-5s-5-9-5-9"/><path fill="#010101" d="M12 19c2.761 0 5-2.239 5-5s-5-9-5-9" opacity=".1"/><path fill="#E83829" d="M12 19c1.657 0 3-2.239 3-5s-3-9-3-9"/><linearGradient id="a" x1="12" x2="15" y1="12" y2="12" gradientUnits="userSpaceOnUse"><stop offset="0" stop-color="#FFF" stop-opacity=".1"/><stop offset="1" stop-color="#FFF" stop-opacity="0"/></linearGradient><path fill="url(#a)" d="M12 19c1.657 0 3-2.239 3-5s-3-9-3-9"/><path fill="#010101" d="M16.75 14c0-2.392-4.75-9-4.75-9s5 6.239 5 9-2.239 5-5 5v-.025c2.643-.133 4.75-2.3 4.75-4.975z" opacity=".1"/><linearGradient id="b" x1="9" x2="12" y1="12" y2="12" gradientUnits="userSpaceOnUse"><stop offset="0" stop-color="#010101" stop-opacity="0"/><stop offset="1" stop-color="#010101" stop-opacity=".15"/></linearGradient><path fill="url(#b)" d="M12 19c-1.657 0-3-2.239-3-5s3-9 3-9"/><linearGradient id="c" x1="1.76" x2="22.24" y1="7.225" y2="16.775" gradientUnits="userSpaceOnUse"><stop offset="0" stop-color="#FFF" stop-opacity=".2"/><stop offset="1" stop-color="#FFF" stop-opacity="0"/></linearGradient><path fill="url(#c)" d="M24 11h-1.05A10.995 10.995 0 0 0 13 1.05V0h-2v1.05A10.995 10.995 0 0 0 1.05 11H0v2h1.05A10.995 10.995 0 0 0 11 22.95V24h2v-1.05A10.995 10.995 0 0 0 22.95 13H24v-2z"/></svg>