<svg xmlns="http://www.w3.org/2000/svg" viewBox="0 0 1200 900" id="healthy-man-donating-his-blood"><g data-name="Blood donate"><path fill="#fff3f7" d="M809.92,63.41c29.62,8.61,162,50.9,218.45,164.85,79.25,159.88-54.91,331.51-91.71,378.59-84.38,107.94-310,309.15-534.55,228-179.87-65-253.69-285-219.08-440.82C240.05,137.2,574.91-4.92,809.92,63.41Z"></path><rect width="64.89" height="28.93" x="935.81" y="456.38" fill="#fc7e85" rx="2"></rect><rect width="64.89" height="28.93" x="935.81" y="514.14" fill="#fc7e85" rx="2"></rect><rect width="64.89" height="28.93" x="968.25" y="485.31" fill="none" stroke="#fc7e85" stroke-miterlimit="10" stroke-width="2" rx="2"></rect><rect width="64.89" height="28.93" x="903.36" y="485.31" fill="none" stroke="#fc7e85" stroke-miterlimit="10" stroke-width="2" rx="2"></rect><rect width="64.89" height="28.93" x="224.03" y="599.38" fill="none" stroke="#fc7e85" stroke-miterlimit="10" stroke-width="2" rx="2"></rect><rect width="64.89" height="28.93" x="256.47" y="657.13" fill="none" stroke="#fc7e85" stroke-miterlimit="10" stroke-width="2" rx="2"></rect><rect width="64.89" height="28.93" x="269.95" y="628.31" fill="none" stroke="#fc7e85" stroke-miterlimit="10" stroke-width="2" rx="2"></rect><rect width="64.89" height="28.93" x="205.07" y="628.31" fill="#fc7e85" rx="2"></rect><rect width="64.89" height="28.93" x="601.42" y="213.94" fill="none" stroke="#fc7e85" stroke-miterlimit="10" stroke-width="2" rx="2"></rect><rect width="64.89" height="28.93" x="623.34" y="271.8" fill="none" stroke="#fc7e85" stroke-miterlimit="10" stroke-width="2" rx="2"></rect><rect width="64.89" height="28.93" x="647.35" y="242.87" fill="#fc7e85" rx="2"></rect><rect width="64.89" height="28.93" x="582.46" y="242.87" fill="none" stroke="#fc7e85" stroke-miterlimit="10" stroke-width="2" rx="2"></rect><g data-name="Blood/Bottle"><path fill="#396e8e" d="M779.79,285.09h-9.87a17.51,17.51,0,0,1-9.88-3.67A25.34,25.34,0,0,1,750.77,268l-2.47-8.24a22.41,22.41,0,0,0-21.6-16.07H699.31A22.56,22.56,0,0,0,678,258.74l-2.82,8.08a26.28,26.28,0,0,1-14.74,15.69c-2.34,1-6.76,2.58-10,2.58h-3.36a20.24,20.24,0,0,1-20.22-20.22v-5a20.24,20.24,0,0,1,20.22-20.22h9.44a2,2,0,0,1,0,4h-9.44a16.24,16.24,0,0,0-16.22,16.22v5a16.24,16.24,0,0,0,16.22,16.22h3.36a26.4,26.4,0,0,0,8.52-2.28,22.29,22.29,0,0,0,12.47-13.32l2.83-8.07a26.57,26.57,0,0,1,25-17.77H726.7a26.37,26.37,0,0,1,25.43,18.93l2.47,8.23a21.34,21.34,0,0,0,7.77,11.35,13.53,13.53,0,0,0,7.55,2.93h9.87A16.24,16.24,0,0,0,796,264.87v-5a16.23,16.23,0,0,0-16.22-16.22h-7.4a2,2,0,0,1,0-4h7.4A20.24,20.24,0,0,1,800,259.87v5A20.24,20.24,0,0,1,779.79,285.09Z"></path><path fill="#54a4cc" d="M652.16,595.6a2,2,0,0,1-2-2V283.16a2,2,0,1,1,4,0V593.6A2,2,0,0,1,652.16,595.6Z"></path><rect width="24.91" height="20.6" x="639.7" y="314.89" fill="#396e8e" rx="6.02"></rect><rect width="58.55" height="69.4" x="622.87" y="322.48" fill="#ef3e3b" rx="6.02"></rect><path fill="#c82833" d="M681.42,385.85V328.51a6,6,0,0,0-6-6H663.31a51.34,51.34,0,0,1,1.12,19.88c-.74,5.23-2.36,15.7-10.84,24.58a37.53,37.53,0,0,1-17.71,10.48,37.91,37.91,0,0,1-13,.67v7.76a6,6,0,0,0,6,6h46.5A6,6,0,0,0,681.42,385.85Z"></path><path fill="#54a4cc" d="M775.65,595.6a2,2,0,0,1-2-2V283.16a2,2,0,1,1,4,0V593.6A2,2,0,0,1,775.65,595.6Z"></path><rect width="24.91" height="20.6" x="763.2" y="391.99" fill="#396e8e" rx="6.02"></rect><rect width="58.55" height="69.4" x="746.36" y="399.58" fill="#ef3e3b" rx="6.02"></rect><path fill="#c82833" d="M804.91,463V405.6a6,6,0,0,0-6-6H786.81a51.74,51.74,0,0,1,1.12,19.88c-.74,5.23-2.37,15.7-10.85,24.57a35.19,35.19,0,0,1-30.72,11.15V463a6,6,0,0,0,6,6h46.51A6,6,0,0,0,804.91,463Z"></path><rect width="15.6" height="612.13" x="704.24" y="214.01" fill="#54a4cc" rx="7.8"></rect></g><g data-name="Patient/Head/Female/Side"><path fill="#ea9d7d" d="M920.79,406.15a37.63,37.63,0,0,0-4.63,3.73c-8.44,7.93-8.9,10.36-19.52,11,0,0-9.08,1.95-2.58,8.07,0,0-.27,1.29-2.92,3.95s-17.8,11.89,3.6,25.95a3,3,0,0,1,.22,4.83l-25.41,16.91,22.77,22.49,38.41-39.55s-5-7-5.72-7.78c0,0,15.61-3.13,10.78-10s-11-2.49-11-2.49l-2-2.44,16.45-16.51Z"></path><path fill="#000001" d="M930.3,465.1l-7.69,6.54s.4-9.41.16-13.55a2.29,2.29,0,0,1,1.72-2.35c4.6-1.2,15.12-4.6,11.3-10s-10.61-1.81-13.41,0a1.73,1.73,0,0,1-2.26-.35v0a1.7,1.7,0,0,1,.13-2.28l9.64-9.44a13.14,13.14,0,0,0-.1-18.64l-6.18-6.08a4.54,4.54,0,0,0-6.14-.2h0c2.27-5.14,8-6.27,9.91-6.63,12.21-2.25,22,8,24.18,10.19,5.88,6.11,11.93,16.88,8.63,22.49-.82,1.4-3,5-3,5s2.53,4.31,2.18,7.09c-.66,5.15-9.14,9.4-19.65,14.62C934.73,463.9,932,464.81,930.3,465.1Z"></path><path fill="#000001" d="M921.41,424.28a11.79,11.79,0,0,1-2.88-2.32,16.23,16.23,0,0,1-2.16-3,14.59,14.59,0,0,1-1.41-3.42,9.87,9.87,0,0,1-.31-3.71c.67,1.08,1.19,2.12,1.77,3.13l1.69,3A69.73,69.73,0,0,1,921.41,424.28Z"></path><line x1="914.04" x2="909.2" y1="421.85" y2="426.64" fill="none" stroke="#000001" stroke-linecap="round" stroke-miterlimit="10" stroke-width="3"></line><path fill="#be3e5f" d="M893.81,439.46c.05-1.77-1.54-6.84-2.43-6.84l-.24.25a50,50,0,0,0-4.55,4.26C888.23,439.74,893.8,439.51,893.81,439.46Z"></path><path fill="#d18165" d="M929.28 445.23a4.82 4.82 0 013.83 1.33 2.38 2.38 0 01.5 2.24 4.07 4.07 0 01-1.31 1.78 9.38 9.38 0 01-3.67 1.82 7 7 0 01-2 .24 2.76 2.76 0 01-1.9-.66 2.91 2.91 0 001.88.17 7.81 7.81 0 001.82-.5 11.3 11.3 0 003.26-1.83 3.19 3.19 0 001.06-1.32 1.62 1.62 0 00-.22-1.47A5.75 5.75 0 00929.28 445.23zM875.2 484.26c4.18 3 26-6.91 33.2-11.72s5.06-7.8 5.06-7.8c-6.06.54-18-5.3-18-5.3h0a3 3 0 01-.45 4.2l-22.67 14.76C872.73 480.81 873.58 483.12 875.2 484.26z"></path><polygon fill="#000001" points="923.13 456.73 883.19 494.03 892.32 503.05 930.3 465.1 923.13 456.73"></polygon><path fill="#000001" d="M922,407.3a52,52,0,0,0,5.94,28.32c7.73,14.77,15.54-4.58,15.54-4.58S935.2,402.43,922,407.3Z"></path></g><g data-name="Patient/Bottom/Side"><path fill="#ea9d7d" d="M459,612.67c1.67,14.05,9.73,26,15,29.78,3.72,2.67,5.08,7.6,5.55,10.25A22.5,22.5,0,0,0,481.1,658c1.85,4.19,5.68,10.54,11.5,9.44,4.29-.81,6.27-2.8,10.17-4.42s9.67-6.3,9.67-6.3c-2.29-7.56-9.41-26.47-6-31.22-3.07-.55-5.38-2.23-8.34-3.92-.95-.53-1.89-1.12-2.81-1.72-.75-.52-1.49-1.05-2.23-1.6-.94-.71-1.88-1.43-2.82-2.21-9.4-7.8-17.85-18.47-24.48-23.83C455.34,583.79,457.34,598.63,459,612.67Z"></path><path fill="#25beef" d="M785.64,534.39s-137.33,24-149.18,27S505,625.14,505,625.14s-2,20.34,6.85,32c0,0,99.74-30.57,123-39.09l42.42-14.55s102.82,14.2,120.73,6.75a89.29,89.29,0,0,0,23.7-14.59S781.76,555.88,785.64,534.39Z"></path><path fill="#1a87c4" d="M798,610.24a89.29,89.29,0,0,0,23.7-14.59s-40-39.77-36.1-61.26l-4.8.84A46.87,46.87,0,0,1,776.26,557c-9.36,19.53-29.07,28-33.75,29.89-24,9.56-37.15-2.19-67.06,0a104.37,104.37,0,0,0-14.65,2.45,254.37,254.37,0,0,0-61.59,20.91c-17.81,8.39-45.34,24.77-93.8,29,.8,6,2.59,12.75,6.46,17.84,0,0,99.74-30.57,123-39.09l39.19-7.16S780.13,617.69,798,610.24Z"></path></g><g data-name="Patient/Torso/Side"><path fill="#25beef" d="M796.61,518c27-26.81,18.88-36.79,42.06-44.52,11.44-3.81,44.52-6.46,51-6.21-4.53,4.08-7.37,5.48-8.67,7.33-1.95,2.77,10.58,5.06,31.58,8.93a17.72,17.72,0,0,0-2.53,4.67,15,15,0,0,0-.47,5.78,34.21,34.21,0,0,1-5.14,21.61,149.58,149.58,0,0,1-9.43,13.31,231.1,231.1,0,0,1-28.61,29.33c-9.85,8.32-16.88,12.64-26.05,23.91-5.24,6.44-5.49,8.16-7.85,9.29-7.28,3.49-23.13-4.21-60.15-50.65a4.23,4.23,0,0,1,2.05-6.67C785.73,528.67,787.71,526.82,796.61,518Z"></path><path fill="#1a87c4" d="M795.38,568.49l18.47,18.87A76.36,76.36,0,0,0,825,595.84c7.84-4.36,35.08-26.64,36.57-28.58l31.48-41.13a23.38,23.38,0,0,0,5.19-16.27c-.59-8.45-4.51-19-20.07-20.15l-6.81.69a37.35,37.35,0,0,0-24.8,13.15l-26.48,30.18c-2.31,2.25-4.36,1.55-4.34,4.77a5.11,5.11,0,0,1-.45,2.62,103.42,103.42,0,0,1-23.63,23.15Q793.58,566.46,795.38,568.49Z"></path><path fill="#ea9d7d" d="M725.65,616.93a23.49,23.49,0,0,1,5.06-2.28c14.85-4.69,71.31-23.16,94.66-39.51,7.44-5.21,42-42.92,42-42.92L849,498.63l-43,47.31a27.42,27.42,0,0,1-6.59,5.3l-76.27,43.84a8.07,8.07,0,0,1-7,.53c-6.42-2.49-19.39-7.35-21.29-6.64-2.54.95-6.47,4.22,7.38,9.41,0,0-1.07,1.92-6.08,3.79s-24.43,8.49-24.27,10.21-3.43,6.76,22.92-2.45c0,0,2,2-.24,2.82s-23.78,8.74-20.61,10.77,6.08.3,23.28-5.81c0,0,2,1.36,1.21,2s-20.87,8.78-20.24,10.47S676,635.33,704.58,623c0,0,.79.83-1.86,2.79s-14.43,10.07-10.46,10.36,4.14-.58,17.72-10.33l15.67-8.92Z"></path><path fill="#25beef" d="M847.82,555.57a4.27,4.27,0,0,0,6-.74l31-40.32.08-.13c8-11.54-1.3-27.15-15.26-25.72l-4.81.49a34,34,0,0,0-22.59,12l-24.33,29a1.42,1.42,0,0,0,.21,2Z"></path><path fill="#1a87c4" d="M884.8,514.3a18.4,18.4,0,0,0,2-6.28,15.61,15.61,0,0,0-.52-6.32,16.14,16.14,0,0,0-7.48-9.53,14.7,14.7,0,0,0-5.76-1.91l-.76-.11a5.08,5.08,0,0,0-.78,0h-1.55l-3.37.25-1.69.13-1.62.16c-1.09.14-2.16.34-3.23.55a35.22,35.22,0,0,0-6.3,1.93A27.68,27.68,0,0,0,843,501c-2.85,3.49-5.38,7.3-8.15,10.89s-5.76,7-8.79,10.35c-1.52,1.69-3.06,3.35-4.65,5-.78.82-1.59,1.62-2.39,2.43-.37.41-.91.79-1.06,1.12a1.2,1.2,0,0,0,.24,1.31l-.18.24a1.67,1.67,0,0,1-.73-1.75,2.32,2.32,0,0,1,.44-.89l.49-.71c.65-.93,1.29-1.87,2-2.78q2-2.76,4.08-5.44c2.79-3.58,5.62-7.11,8.67-10.47s6.32-6.51,9.33-9.92A43.31,43.31,0,0,1,853,491.7a32.65,32.65,0,0,1,6.41-2.79,33,33,0,0,1,3.43-.84c1.16-.21,2.32-.36,3.43-.49s2.23-.3,3.38-.42l1.85-.09c.31,0,.62-.05.93,0l.92.09a16.32,16.32,0,0,1,7,2.27,17.44,17.44,0,0,1,8.17,11.75c.09.6.2,1.2.26,1.8v1.81a9.79,9.79,0,0,1-.18,1.79,9.37,9.37,0,0,1-.36,1.75c-.18.57-.35,1.14-.54,1.7s-.52,1.06-.78,1.58l-.4.78-.5.71-1,1.39Z"></path></g><g><rect width="455.04" height="349.92" x="150.24" y="103.79" fill="#c9effb"></rect><path fill="#a8e5f9" d="M605.28,341c-12.58-3.45-34.14-7.18-73.45-11.31-110.89-11.64-132.13-2.18-169.92-21.6-46-23.64-68.91-65.6-76.32-79.2-27.86-51.08-22.2-93.59-27.48-125.14H150.24V453.71h455Z"></path><path fill="#87dbf6" d="M608.11,97.45H148.33a5.74,5.74,0,0,0-5.74,5.74V454.57a5.74,5.74,0,0,0,5.74,5.74H608.11a5.74,5.74,0,0,0,5.74-5.74V103.19A5.74,5.74,0,0,0,608.11,97.45ZM596,441.22a5.31,5.31,0,0,1-5.31,5.31H165.79a5.3,5.3,0,0,1-5.3-5.31V116.53a5.3,5.3,0,0,1,5.3-5.3H590.65a5.3,5.3,0,0,1,5.31,5.3Z"></path><rect width="5" height="335.69" x="449.22" y="110.84" fill="#87dbf6"></rect><rect width="5" height="335.69" x="302.24" y="110.84" fill="#87dbf6"></rect><rect width="435.47" height="5" x="160.49" y="349.87" fill="#87dbf6"></rect><rect width="435.47" height="5" x="160.49" y="202.89" fill="#87dbf6"></rect></g><g><path fill="#454851" d="M828,230.66V350.21a4,4,0,0,0,4,4H961.76a4,4,0,0,0,4-4V230.66a4,4,0,0,0-4-4H832A4,4,0,0,0,828,230.66ZM950.57,343.85H843.17a4,4,0,0,1-4-4V241a4,4,0,0,1,4-4h107.4a4,4,0,0,1,4,4v98.83A4,4,0,0,1,950.57,343.85Z"></path><rect width="115.4" height="106.83" x="839.17" y="237.02" fill="#e3eaf3" rx="3"></rect><path fill="#ef3e3b" d="M912.9,263.68a3.07,3.07,0,0,0-4.38,0c-2.3,2.33-22.42,23.23-22.42,36a24.61,24.61,0,0,0,49.22,0c0-12.76-20.12-33.66-22.42-36Zm-36.74-6a3.09,3.09,0,0,0-4.74,0c-2.15,2.62-13,16-13,23.51a15.39,15.39,0,0,0,30.77,0c0-7.53-10.87-20.89-13-23.51Zm0,0"></path><path fill="#c82833" d="M872.43,297a16.29,16.29,0,0,1-16.29-16.3c0-8,11.5-22.12,13.78-24.89a3.24,3.24,0,0,1,5,0c2.27,2.77,13.78,16.91,13.78,24.89A16.29,16.29,0,0,1,872.43,297Zm0-33.88c-4.66,6.08-9.78,14.1-9.78,17.58a9.78,9.78,0,1,0,19.55,0c0-3.51-5.11-11.5-9.77-17.58Zm39.1,63.2a26.07,26.07,0,0,1-26.07-26.06c0-13.52,21.31-35.66,23.75-38.13a3.28,3.28,0,0,1,4.64,0c2.44,2.47,23.75,24.61,23.75,38.13a26.07,26.07,0,0,1-26.07,26.06Zm0-57.19c-7,7.63-19.55,22.81-19.55,31.13a19.55,19.55,0,0,0,39.1,0c0-8.22-12.51-23.5-19.55-31.13Zm0,0"></path></g><g><path fill="#a04833" d="M941.21,549.63a4.17,4.17,0,0,1,4.17-4.16h124.09V826.32H945.38a4.17,4.17,0,0,1-4.17-4.17Z"></path><path fill="#843a2c" d="M1069.47,545.46V826.32h31.09a4.17,4.17,0,0,0,4.16-4.17V549.63a4.17,4.17,0,0,0-4.16-4.17Z"></path><rect width="105.76" height="39" x="946.84" y="560.74" fill="#ea8826" rx="4.17"></rect><path fill="#cc7829" d="M1059.68,560.74h-11.25a4.17,4.17,0,0,1,4.17,4.16v30.67a4.17,4.17,0,0,1-4.17,4.17h11.25a4.17,4.17,0,0,0,4.17-4.17V564.9A4.17,4.17,0,0,0,1059.68,560.74Z"></path><circle cx="999.72" cy="580.24" r="6.68" fill="#843a2c"></circle><rect width="105.76" height="39" x="946.84" y="613.57" fill="#ea8826" rx="4.17"></rect><path fill="#cc7829" d="M1059.68,613.57h-11.25a4.17,4.17,0,0,1,4.17,4.16V648.4a4.17,4.17,0,0,1-4.17,4.17h11.25a4.17,4.17,0,0,0,4.17-4.17V617.73A4.17,4.17,0,0,0,1059.68,613.57Z"></path><circle cx="999.72" cy="633.07" r="6.68" fill="#843a2c"></circle><rect width="105.76" height="39" x="946.84" y="666.39" fill="#ea8826" rx="4.17"></rect><path fill="#cc7829" d="M1059.68,666.39h-11.25a4.17,4.17,0,0,1,4.17,4.17v30.67a4.17,4.17,0,0,1-4.17,4.17h11.25a4.17,4.17,0,0,0,4.17-4.17V670.56A4.17,4.17,0,0,0,1059.68,666.39Z"></path><circle cx="999.72" cy="685.9" r="6.68" fill="#843a2c"></circle><rect width="105.76" height="39" x="946.84" y="719.22" fill="#ea8826" rx="4.17"></rect><path fill="#cc7829" d="M1059.68,719.22h-11.25a4.17,4.17,0,0,1,4.17,4.17v30.67a4.17,4.17,0,0,1-4.17,4.17h11.25a4.17,4.17,0,0,0,4.17-4.17V723.39A4.17,4.17,0,0,0,1059.68,719.22Z"></path><circle cx="999.72" cy="738.72" r="6.68" fill="#843a2c"></circle><rect width="105.76" height="39" x="946.84" y="772.05" fill="#ea8826" rx="4.17"></rect><path fill="#cc7829" d="M1059.68,772.05h-11.25a4.17,4.17,0,0,1,4.17,4.17v30.67a4.17,4.17,0,0,1-4.17,4.16h11.25a4.17,4.17,0,0,0,4.17-4.16V776.22A4.17,4.17,0,0,0,1059.68,772.05Z"></path><circle cx="999.72" cy="791.55" r="6.68" fill="#843a2c"></circle></g><g><path fill="#2e6821" d="M194.5 759.34c-8.44-56.75 4.65-126.23 4.79-126.93l3.92.75c-.13.69-13.09 69.52-4.75 125.6zM188.81 759.17l-4-.24c2.86-46.38-5.83-49.67-5.92-49.7l.21 0 .31-4C181.53 705.44 191.92 708.8 188.81 759.17zM203.24 751.07l-4-.4c5.14-51.35 10-52.5 12.11-53a3 3 0 013.21 1.33l-3.38 2.14a.91.91 0 00.63.43.88.88 0 00.66-.09C211.72 702 207.65 707 203.24 751.07z"></path><path fill="#abbcca" d="M217,826.06H160.19a14.8,14.8,0,0,1-14.63-12.6l-10-66.64c-.7-4.62,33.27-1,54.07-1.16,19.59-.2,51.61-2,51.27.29l-9.32,67.51A14.79,14.79,0,0,1,217,826.06Z"></path><path fill="#91a6b5" d="M188.22,745.67c-20.79.21-53.36-3.47-52.66,1.15l10,66.64a14.8,14.8,0,0,0,14.63,12.6h22.46a35.8,35.8,0,0,1-9.25-23.74c0-1.82.22-13.51,8.71-22.84,5.07-5.57,13.3-8.42,29.75-14.12,7.9-2.74,14.22-4.13,21-9.92a48.35,48.35,0,0,0,7.78-7.83l.23-1.66C241.24,743.63,207.82,745.48,188.22,745.67Z"></path><path fill="#3c8f2d" d="M167.45,768.63s.76-3,2.48-9.18a50.86,50.86,0,0,1,6.69-14.31c4.26-6.32,6.76-6.66,7.34-10.86a20.07,20.07,0,0,0-.9-8.35c-1-3.1-2.09-3.76-2.13-6.14-.05-2.55,1.14-4.52,2.37-6.59,2.37-4,3.69-3.52,4.58-6,1.1-3.13-.1-6.3-1.24-9.33-1.44-3.8-2.95-3.56-3.53-6.33-.91-4.38,1.7-8.37,1.89-8.64,1.85-2.76,3.67-2.79,4.45-5.1s-.53-5-1-6.09c-1-2.28-2.05-2.85-2-4.62a5.57,5.57,0,0,1,1.29-3.33c1.56-2,3.2-1.49,4.54-2.9,2.16-2.29.89-6.77.5-8.17-1-3.54-2.42-3.54-4.68-8.36-1.35-2.89-2.27-4.85-2.41-7.6-.2-3.86,1.33-5.21.37-7.9-.61-1.7-2.29-4.16-4.17-4.33-6.39-.58-16.81,25.14-16.81,25.14a23,23,0,0,1-3.19-6c-3.22-8.56-2.94-11.81-6-17.23-1.13-2-3.68-6.57-5.91-6.17-1.94.35-2.83,4.27-3.58,7.57-1.43,6.31,0,8.05-1.9,11.2-.69,1.17-2.66,2.59-6.57,5.39-6.85,4.89-7.78,4.9-8.94,6.87-2.75,4.7-.68,10.23-.53,10.62a15.32,15.32,0,0,0,5.58,6.49,10.57,10.57,0,0,0-5.21,2.26c-2.15,1.88-3,5.62-1.64,7.44.92,1.26,2.18.68,3.68,2.28a6.38,6.38,0,0,1,1.64,4.09c-.06,2.66-2.26,3.16-2.39,5.93a6,6,0,0,0,1.41,4.07c1.49,1.57,3,.76,4.61,2.4a6.16,6.16,0,0,1,1.7,3.95c0,1.82-1,2.18-.81,3.73a5.35,5.35,0,0,0,2.36,3.29c1.57,1.1,2.43.62,3.3,1.52s.85,2.64.52,5c-.68,5.07-1.17,6-1.39,8.14a19.15,19.15,0,0,0,1.85,10.46c1.52,2.92,2.55,2.56,5.12,6.77a42.25,42.25,0,0,1,3,6.16,73.17,73.17,0,0,1,2.75,7.93C157.08,761.73,167.45,768.63,167.45,768.63Z"></path><path fill="#91dc4f" d="M186.08,639.44a13.51,13.51,0,0,1-3.76,4.47c-5,4-15,11.86-17.93,14.2.47-4.59.94-7.93,1.24-9.93l-.6,1.43s-.15-.19-.41-.56c-.42,2.88-1,7.61-1.58,14.05-10.52.57-15.82-19-17.55-27.14a7.32,7.32,0,0,1-.49,2c2.08,9.06,7.46,26.5,18,26.06-.11,1.41-.23,2.89-.34,4.45-14,7.38-26.18,1.2-30.59-1.62a15.54,15.54,0,0,0,2,1.54s-.33,0-.84.16c4.84,2.72,14.32,6.48,25.33,2.67a31,31,0,0,0,4-1.74c-.21,3.29-.41,6.9-.56,10.82-4.85,8.58-19.28,14.93-25.29,17.27a4.89,4.89,0,0,1,.47.77c5.88-2.28,19.15-8.12,24.76-16.3q-.17,4.93-.22,10.49c-13.07,16.69-18.13,26.68-20,32.35a21.08,21.08,0,0,0,.21,2.56c1.1-4.76,5.24-14.74,19.79-33.47q0,3.3,0,6.83h0s0,0,0,.1q.09,8.28.51,17.63h0c0,.08.36,7.93-6.07,16.77a21.17,21.17,0,0,0-4,11.44c.32.8.6,1.54.85,2.22a20.71,20.71,0,0,1,3.86-13.14,33.2,33.2,0,0,0,5.66-12.17c.77,13.46,2.17,28.43,4.49,44.7l.46.32.3-1.16a519,519,0,0,1-5.11-63.4c2.21,7,8.51,23.57,21,31.65a7.41,7.41,0,0,0,.22-.9C169,725,163.16,703,162.59,700.75c0-4.08,0-8,0-11.63A32,32,0,0,0,188,702c-.07-.29-.14-.59-.23-.88-16.65-.6-24.22-12-25.1-13.49.1-5.38.3-10.29.55-14.69,2.23,1,10.06,3.73,21-.07a40,40,0,0,0,4-1.63c-.14-.28-.27-.53-.41-.77-13.39,6.25-22.86,2.34-24.54,1.53.29-4.86.64-9.09,1-12.65,1.54-1.22,13.06-10.38,18.6-14.72a14.79,14.79,0,0,0,3.59-4C186.31,640.22,186.19,639.83,186.08,639.44Z"></path><path fill="#3c8f2d" d="M265,755.45s-.54-2.38-1.52-7.26a39.37,39.37,0,0,1-.42-12.31c.72-5.9,2.34-7,1.25-10.14a15.61,15.61,0,0,0-3.57-5.48c-1.8-1.8-2.78-1.88-3.66-3.52s-.81-3.54-.68-5.42c.24-3.58,1.32-3.75,1-5.8-.34-2.57-2.29-4.35-4.16-6-2.34-2.13-3.31-1.43-4.69-3.15a9.77,9.77,0,0,1-1.75-6.68c.31-2.57,1.57-3.23,1.29-5.11s-2.13-3.29-2.85-3.88c-1.51-1.22-2.44-1.25-3.06-2.48a4.38,4.38,0,0,1-.28-2.77c.38-1.94,1.7-2.17,2.13-3.63.69-2.35-1.78-5-2.55-5.85-1.95-2.11-2.93-1.6-6.21-4.16-2-1.53-3.29-2.56-4.36-4.42-1.51-2.62-.92-4.1-2.54-5.62-1-1-3.06-2.08-4.43-1.53-4.65,1.86-2.78,23.41-2.78,23.41a17.9,17.9,0,0,1-4.34-3c-5.27-4.81-6.22-7.17-10.25-9.86-1.5-1-4.88-3.26-6.29-2.19-1.22.93-.46,4,.19,6.52,1.24,4.89,2.82,5.61,2.65,8.46-.07,1.06-.93,2.74-2.66,6.07-3,5.82-3.68,6.16-3.78,7.93-.25,4.25,3.14,7.36,3.38,7.57a12,12,0,0,0,6.18,2.54,8.27,8.27,0,0,0-2.82,3.41c-.83,2.07-.07,5,1.5,5.75,1.08.56,1.75-.3,3.36.29a4.87,4.87,0,0,1,2.59,2.26c.9,1.87-.46,3,.44,5a4.63,4.63,0,0,0,2.41,2.33c1.6.56,2.32-.51,4,0a4.77,4.77,0,0,1,2.59,2.14c.65,1.26.05,1.89.75,2.88a4.17,4.17,0,0,0,2.8,1.45c1.48.21,1.91-.43,2.83-.11s1.53,1.53,2.15,3.31c1.32,3.77,1.32,4.61,1.91,6.15a15.09,15.09,0,0,0,5,6.61c2.09,1.49,2.68.88,5.95,2.89a32.78,32.78,0,0,1,4.29,3.22,58.78,58.78,0,0,1,4.71,4.53C255.36,754.33,265,755.45,265,755.45Z"></path><path fill="#91dc4f" d="M232.24,659.09a10.74,10.74,0,0,1-1,4.44c-2.1,4.52-6.23,13.54-7.44,16.21-1.29-3.36-2.15-5.84-2.65-7.35,0,.77.09,1.21.09,1.21l-.49-.24c.73,2.15,2,5.65,3.88,10.32-7.11,4.12-17.73-7.63-21.8-12.64a5.71,5.71,0,0,1,.36,1.53c4.64,5.55,14.55,15.77,21.7,11.75.41,1,.86,2.09,1.34,3.21-7.09,10.07-17.77,10.1-21.83,9.7a12.18,12.18,0,0,0,1.92.37,6.59,6.59,0,0,0-.53.41,24.11,24.11,0,0,0,18.55-7.11,25.64,25.64,0,0,0,2.2-2.64c1,2.36,2.15,4.94,3.43,7.71-.33,7.69-8.11,17.2-11.46,20.95a6.16,6.16,0,0,1,.6.37c3.28-3.66,10.43-12.41,11.44-20.09,1.09,2.33,2.27,4.79,3.56,7.37-3.18,16.23-3.16,25-2.46,29.56a15,15,0,0,0,1,1.71c-.92-3.69-1.58-12.1,1.91-30.27q1.15,2.31,2.43,4.74l0,0,.06.06q3,5.72,6.59,12.07h0s3.06,5.38,1.72,13.8a16.55,16.55,0,0,0,1.26,9.36c.51.44,1,.86,1.38,1.25a16.18,16.18,0,0,1-2-10.51,25.62,25.62,0,0,0-.38-10.45c5.31,9.08,11.58,19,18.95,29.47l.43.06-.2-.91a403.43,403.43,0,0,1-26-42.25c4,4.12,14.25,13.36,25.79,14.56a4.68,4.68,0,0,0-.16-.7c-13.78-1.55-25.66-14.8-26.84-16.15q-2.21-4.23-4.09-8.09a24.92,24.92,0,0,0,22.17,0c-.15-.18-.31-.36-.47-.53a24,24,0,0,1-22.22-.49c-1.83-3.77-3.42-7.26-4.81-10.4,1.9-.11,8.31-1,14.58-7.49.74-.77,1.47-1.62,2.2-2.55-.2-.14-.38-.27-.56-.38-7.1,9.08-15.06,9.71-16.51,9.75-1.52-3.49-2.77-6.55-3.79-9.15.64-1.39,5.4-11.83,7.71-16.81a11.5,11.5,0,0,0,1.09-4C232.67,659.55,232.45,659.32,232.24,659.09Z"></path><path fill="#7bce34" d="M267.85,700.07s-.73-3-2.06-9.28a50.32,50.32,0,0,1-.72-15.78c.83-7.58,2.9-9,1.45-13a20,20,0,0,0-4.66-7c-2.34-2.29-3.6-2.37-4.74-4.46s-1.1-4.53-1-6.94c.26-4.59,1.64-4.82,1.25-7.46-.48-3.29-3-5.54-5.43-7.69-3-2.7-4.26-1.78-6.06-4-2.83-3.45-2.37-8.2-2.34-8.53.36-3.3,2-4.18,1.58-6.58s-2.79-4.19-3.72-4.93c-1.94-1.55-3.14-1.57-3.95-3.14a5.56,5.56,0,0,1-.41-3.55c.47-2.48,2.15-2.8,2.68-4.68.85-3-2.35-6.41-3.35-7.46-2.53-2.68-3.78-2-8-5.24-2.54-1.93-4.26-3.24-5.66-5.61-2-3.33-1.24-5.23-3.34-7.17-1.32-1.22-4-2.62-5.7-1.9-5.93,2.46-3.22,30.07-3.22,30.07a23,23,0,0,1-5.61-3.83c-6.82-6.09-8.09-9.1-13.29-12.5-1.94-1.26-6.3-4.1-8.1-2.71-1.55,1.21-.52,5.09.35,8.36,1.66,6.26,3.69,7.15,3.51,10.81-.06,1.35-1.15,3.53-3.32,7.81-3.79,7.52-4.61,8-4.72,10.24-.26,5.45,4.14,9.38,4.45,9.65a15.35,15.35,0,0,0,8,3.17,10.59,10.59,0,0,0-3.57,4.41c-1,2.66,0,6.36,2,7.36,1.4.69,2.25-.41,4.31.31a6.26,6.26,0,0,1,3.35,2.86c1.19,2.38-.53,3.85.65,6.36a5.88,5.88,0,0,0,3.13,2.95c2.05.7,3-.7,5.19,0a6.16,6.16,0,0,1,3.35,2.72c.85,1.6.09,2.41,1,3.68a5.34,5.34,0,0,0,3.61,1.81c1.9.25,2.44-.57,3.63-.18,1.35.44,2,1.94,2.8,4.21,1.75,4.81,1.77,5.89,2.55,7.86a19.15,19.15,0,0,0,6.49,8.4c2.71,1.88,3.45,1.09,7.68,3.62a43.09,43.09,0,0,1,5.54,4.06,77.34,77.34,0,0,1,6.11,5.74C255.46,698.77,267.85,700.07,267.85,700.07Z"></path><path fill="#91dc4f" d="M224.39,577a13.56,13.56,0,0,1-1.26,5.7c-2.63,5.83-7.78,17.46-9.3,20.9-1.7-4.29-2.84-7.46-3.5-9.38.08,1,.13,1.55.13,1.55s-.23-.1-.62-.3c1,2.74,2.62,7.22,5.12,13.18-9.05,5.38-22.84-9.52-28.14-15.89a7.63,7.63,0,0,1,.48,2c6,7.06,18.9,20,28,14.75.55,1.3,1.14,2.67,1.76,4.1-8.93,13-22.63,13.22-27.84,12.76a15.76,15.76,0,0,0,2.47.45,7.24,7.24,0,0,0-.67.53c5.55.16,15.69-.91,23.68-9.4a31.09,31.09,0,0,0,2.77-3.41c1.33,3,2.84,6.3,4.53,9.84-.32,9.85-10.16,22.17-14.39,27a7,7,0,0,1,.78.47c4.14-4.75,13.18-16.08,14.36-25.93q2.15,4.46,4.68,9.39c-3.84,20.85-3.68,32.05-2.71,37.94a19.34,19.34,0,0,0,1.37,2.18c-1.24-4.73-2.21-15.5,2-38.84,1,2,2.08,4,3.19,6l0,0,.07.07c2.61,4.86,5.48,10,8.63,15.38l0,0c0,.06,4,6.85,2.41,17.67a21.14,21.14,0,0,0,1.76,12c.66.56,1.25,1.09,1.78,1.58a20.7,20.7,0,0,1-2.68-13.44,32.87,32.87,0,0,0-.64-13.4c6.94,11.57,15.13,24.17,24.73,37.51l.56.07-.27-1.16a519.55,519.55,0,0,1-34-53.79c5.23,5.22,18.48,16.92,33.29,18.28a8.12,8.12,0,0,0-.21-.89C249,660.72,233.57,643.92,232,642.2q-2.89-5.4-5.37-10.32a32,32,0,0,0,28.43-.39c-.19-.23-.4-.45-.61-.67-15,7.2-27,.57-28.5-.3-2.4-4.81-4.5-9.25-6.32-13.27,2.42-.16,10.64-1.36,18.58-9.81a43.05,43.05,0,0,0,2.78-3.3c-.26-.19-.49-.35-.72-.49-9,11.75-19.17,12.68-21,12.75-2-4.45-3.65-8.36-5-11.67.79-1.8,6.75-15.26,9.64-21.67a15,15,0,0,0,1.33-5.2C225,577.58,224.66,577.29,224.39,577Z"></path><path fill="#7bce34" d="M106.25,727.59s1.71-2.61,5.35-7.86a50.36,50.36,0,0,1,11-11.33c6.09-4.58,8.56-4.07,10.48-7.86a20,20,0,0,0,1.89-8.18c.06-3.26-.74-4.24,0-6.5.79-2.42,2.55-3.9,4.4-5.45,3.53-3,4.64-2.11,6.29-4.2,2.07-2.6,2-6,1.89-9.23-.11-4.05-1.62-4.32-1.26-7.13.58-4.43,4.35-7.35,4.62-7.55,2.65-2,4.38-1.43,5.87-3.35s1.14-4.9,1.05-6.08c-.2-2.48-1-3.37-.42-5a5.58,5.58,0,0,1,2.31-2.72c2.12-1.37,3.51-.36,5.24-1.26,2.79-1.45,3.06-6.1,3.14-7.55.22-3.68-1.12-4.13-1.67-9.44-.34-3.17-.56-5.32.21-8,1.07-3.71,3-4.48,2.93-7.34,0-1.8-.8-4.68-2.51-5.45-5.86-2.64-24.12,18.25-24.12,18.25a23,23,0,0,1-1-6.72c-.24-9.14,1.09-12.13,0-18.24-.41-2.28-1.32-7.41-3.57-7.76-1.94-.31-4.07,3.1-5.85,6-3.43,5.5-2.69,7.6-5.47,10-1,.88-3.36,1.58-8,2.93-8.08,2.38-9,2.09-10.7,3.57-4.14,3.54-4,9.44-4,9.86a15.32,15.32,0,0,0,3.15,8,10.73,10.73,0,0,0-5.67.42c-2.64,1.08-4.64,4.35-4,6.51.45,1.49,1.84,1.35,2.73,3.35a6.36,6.36,0,0,1,.2,4.41c-.92,2.49-3.16,2.24-4.19,4.82a6,6,0,0,0,0,4.3c.89,2,2.54,1.69,3.57,3.77a6.25,6.25,0,0,1,.31,4.3c-.59,1.72-1.7,1.72-2,3.25a5.34,5.34,0,0,0,1.15,3.88c1.12,1.56,2.09,1.39,2.62,2.52.6,1.29-.06,2.77-1.15,4.93-2.31,4.57-3.08,5.32-4,7.23a19.23,19.23,0,0,0-1.67,10.49c.48,3.26,1.57,3.25,2.62,8.07a43.72,43.72,0,0,1,.84,6.82,76.6,76.6,0,0,1,0,8.39C98.7,717.67,106.25,727.59,106.25,727.59Z"></path><path fill="#91dc4f" d="M166.16,611.63a13.37,13.37,0,0,1-5,3c-6.05,2.08-18.05,6.3-21.6,7.54,2-4.18,3.49-7.18,4.44-9-.66.72-1,1.16-1,1.16s-.09-.24-.21-.67c-1.34,2.58-3.46,6.86-6.1,12.76-10.12-2.91-8.7-23.16-7.69-31.39a7.09,7.09,0,0,1-1.1,1.69c-1,9.24-1.64,27.48,8.43,30.51-.57,1.28-1.16,2.65-1.77,4.08-15.6,2.41-25.13-7.44-28.37-11.55a15.15,15.15,0,0,0,1.37,2.11s-.33-.07-.85-.13c3.68,4.16,11.4,10.82,23.06,10.82a32.14,32.14,0,0,0,4.39-.31c-1.28,3-2.65,6.38-4.07,10-7.4,6.52-23.12,7.79-29.55,8a7.39,7.39,0,0,1,.19.88c6.29-.23,20.74-1.4,28.73-7.29-1.18,3.07-2.4,6.36-3.64,9.84C108,665.26,99.9,673,96.26,677.78a20.79,20.79,0,0,0-.64,2.49c2.59-4.14,9.78-12.22,29.67-25.15q-1.11,3.14-2.22,6.46h0a.58.58,0,0,1,0,.1c-1.75,5.23-3.53,10.84-5.29,16.83h0c0,.08-2.25,7.61-11.22,13.86A21.12,21.12,0,0,0,99,701.85c0,.86.06,1.65.07,2.38a20.63,20.63,0,0,1,8-11.16,33.09,33.09,0,0,0,9.32-9.64c-3.68,13-7.25,27.57-10.4,43.71l.34.45.66-1A518.45,518.45,0,0,1,122.85,665c-.23,7.39.32,25.06,9.48,36.78.17-.23.33-.49.5-.76-10.82-14.12-9.14-36.87-8.94-39.17,1.3-3.87,2.59-7.53,3.84-11a32,32,0,0,0,19.76,20.45c0-.3,0-.61.07-.91-15.54-6-18.94-19.31-19.3-21,1.86-5.05,3.66-9.62,5.34-13.7,1.78,1.66,8.28,6.82,19.88,6.82,1.36,0,2.8-.08,4.3-.23,0-.31-.08-.6-.13-.86-14.71,1.52-22.37-5.28-23.69-6.59,1.86-4.51,3.58-8.39,5.08-11.63,1.86-.65,15.74-5.53,22.39-7.82a14.74,14.74,0,0,0,4.7-2.59C166.13,612.44,166.14,612,166.16,611.63Z"></path></g><g><path fill="#bcddec" d="M853.81,594.71c-.15,8.18-.89,33.45-4.61,48.33C846.11,655.39,831,665,825.41,667.61l1.09,2.32,6.94,1.43c-.4,3.62-7.72,7.46-8.21,10.84l.36.76c1.11-.52,34-13.35,39.66-35.91,4.54-18.18,5.07-48.19,5.13-54A42.22,42.22,0,0,1,853.81,594.71Z"></path><path fill="#e3eaf3" d="M582.75,659.92l6.73,44s-75.94,29-102,122.11h292.6V803s37.53-24.76,39.13-114.59Z"></path><path fill="#396e8e" d="M819.21,688.39,582.75,659.92l.15.74c15.15,13.8,39,48.38,54.23,76.32,23.82,43.66,87.85,97.27,143,66l1.53-.91C788.44,797.61,817.81,767,819.21,688.39Z"></path><path fill="#54a4cc" d="M829.23,667.08c-34,14.07-90.92,11.22-145.42-1-52.35-11.76-102-28.94-153.17-2.83.43-.08,47.15-8.41,107.1,11.92,60.23,20.43,143.43,43.47,170.08,25.22,20.2-13.84,29.43-33.85,32.72-42.73C838.61,661.41,835,664.68,829.23,667.08Z"></path><path fill="#e3eaf3" d="M832.7,613.87S792.6,597,839,561.25s55.79-49.63,60.75-57.57S925,465,955.3,473.4c0,0-3.48,20.35-13.9,34.74s-44.18,57.58-44.18,57.58S861.49,618.33,832.7,613.87Z"></path><path fill="#4b73a6" d="M955.3,473.4s-21.84-17.37-2.49-38.22,37.23-23.33,45.67-19.36S955.3,473.4,955.3,473.4Z"></path><path fill="#e3eaf3" d="M955.3,473.4s-21.84-17.37-2.49-38.22,37.23-23.33,45.67-19.36S955.3,473.4,955.3,473.4Z"></path><path fill="#54a4cc" d="M1003.94,410.36c-12.91,0-9.48,17.36-31.83,27.3S955.3,473.4,955.3,473.4c-25.32,8.44-34.75,74.45-66.51,86.36s-56.09,54.11-56.09,54.11C881.84,639.68,934.45,541.4,945.87,524c7.73-11.78,20.92-34.71,20.75-45.65l0,0C1018.67,422.93,1016.84,410.36,1003.94,410.36Z"></path><path fill="#e3eaf3" d="M418.84,736.85S399,719.48,467.41,683.74s108.91-72.6,154.52-69.57,96.8,2.49,140.26-3.95,41.78-22.75,59-18.53,46.8,43.49,13.68,78.63c-25.26,26.81-76.08,13.88-130.58,1.64s-106.12-30.39-159.48.58S421.32,746.14,418.84,736.85Z"></path></g><g data-name="Doctor/Bottom"><path fill="#cc7829" d="M347.08,827c-4.08-13.84-22.26-38.4-18.57-55.86-6.1,1.68-23.11-12.45-29.66-17.67h0s-10.25,9.4-15.33,17.54-6.29,10.6-6.29,10.6l12.21,9.63,2.1-3.53s7.53,5,9.14,11.78,10.16,19.56,23.39,26.61S351.17,840.81,347.08,827Z"></path><path fill="#e3eaf3" d="M298.85 753.45h0s-10.25 9.4-15.33 17.54c-1.19 1.9-2.16 3.49-3 4.81 4.34 3.34 9.76 6.76 9.56 2.77-.34-6.61 11.45-23 11.45-23C300.52 754.77 299.59 754.05 298.85 753.45zM347.74 830.06a18.12 18.12 0 00-.66-3.08c-1.72-5.83-5.42-13.35-8.86-21.4a30.67 30.67 0 00-18.24-.94c-5.36 1.48-9.78 7.06-11.25 7.47.73 5.52 35.07 24.65 38 21.85a.94.94 0 01.1-.1A5.7 5.7 0 00347.74 830.06z"></path><path fill="#7c2f13" d="M324.07,826.08c10.62,5.66,21.65,11.72,23.47,6.73-37.1-11.12-42.11-31.85-42.14-37.17s-5.5-9.1-5.5-9.1c-10.4-6.33-14-13.1-15.16-17.4-.43.62-.84,1.24-1.22,1.85-5.08,8.14-6.29,10.6-6.29,10.6l12.21,9.63,2.1-3.53s7.53,5,9.14,11.78S310.84,819,324.07,826.08Z"></path><path fill="#37d6ba" d="M431.41,494.81S447,633.34,447.51,645.54s-6.59,139.13-6.59,139.13-18.95,7.65-32.62,2.44c0,0-10.74-97.31-9.11-122l-3.58-46.86s-2.93,39-5.86,43.61-59.88,111.62-59.88,111.62-32.55-14.64-32.55-18.87c0,0,18.88-78.11,43-99.91l.33-90.64a90.78,90.78,0,0,1-5.86-43,89.19,89.19,0,0,1,7.32-26.85S411.89,504.57,431.41,494.81Z"></path><path fill="#0aa68b" d="M396.75,603.07c2.6-30,8-58.76,9.76-58.58,1.35.14-.05,15.07-.49,49.31-.36,27.93.19,46.68,1,73.22,1.53,51.81,3.6,60.69,5.82,67.86a139.36,139.36,0,0,0,28.1,49.79c-6.4,2.88-16.77,6.2-28.36,3.64a38.76,38.76,0,0,1-4.26-1.2s-10.74-97.31-9.11-122l-3.47-45.36C395.86,615.16,396.13,610.15,396.75,603.07Z"></path><path fill="#0aa68b" d="M321.54,723.89c4-21.45,16.14-25.68,26.12-50.79,6-15.11,6.71-32.46,8.1-67.17,2.13-53.21-3.48-57.29,3.53-70.22,18.47-34.08,72.88-35.21,72.12-40.9-21.08,7.24-79.62.65-88.26-.46h0l-.7-.09h-.23l-.11,0a89.19,89.19,0,0,0-7.32,26.85,90.78,90.78,0,0,0,5.86,43l-.33,90.64c-24.08,21.8-43,99.91-43,99.91.76,1,1.57,1.92,2.43,2.87,6.54,5.07,24.41,13.39,29,15.5l.1,0,.09,0,.23.11.14.06.1,0,.13.06.06,0,.26.12C324.08,761.55,317.81,743.69,321.54,723.89Z"></path><path fill="#e3eaf3" d="M375.88,507q0,9,0,18.06l-.08,18.06-.43,36.11c-.15,12-.39,24.07-.62,36.1l-.82,36.11v.31l-.13.28c-4.56,9.69-9.07,19.41-13.67,29.08s-9.17,19.36-13.83,29L332.33,739c-4.74,9.61-9.4,19.26-14.21,28.83,4.23-9.84,8.63-19.61,12.94-29.42l13.21-29.29c4.39-9.78,8.86-19.51,13.33-29.24s9-19.44,13.49-29.17l-.14.59.9-36.09c.36-12,.69-24.07,1.11-36.1l1.3-36.09.77-18Q375.41,516,375.88,507Z"></path><path fill="#e3eaf3" d="M339,502c7.76,1.24,15.54,2,23.32,2.66,3.9.27,7.79.6,11.69.76l2.92.17,2.93.12c1.95.07,3.9.18,5.85.21,3.9.11,7.8.24,11.71.23,1.95,0,3.91.1,5.86.06s3.91,0,5.87,0,3.91,0,5.86-.05l5.88-.06c3.92,0,7.83-.19,11.77-.15q-5.82.93-11.68,1.62c-3.91.35-7.83.8-11.76,1-7.85.51-15.73.58-23.6.38-2-.06-3.94-.19-5.91-.28s-3.93-.21-5.89-.39c-3.92-.33-7.85-.72-11.75-1.27s-7.79-1.18-11.65-2A99.83,99.83,0,0,1,339,502Z"></path><path fill="#cc7829" d="M486.44,816.46c-10.88-8.34-38.6-17-45.54-32.51-3.75,4.71-24.72,3.38-32.68,3h0s-2.61,13-2,22,1.11,11.67,1.11,11.67l14.77.56-.37-3.89s8.59-.38,13.62,3.94,18.76,9.33,32.87,7.34S497.33,824.8,486.44,816.46Z"></path><path fill="#e3eaf3" d="M408.22 787h0s-2.61 13-2 22c.16 2.13.3 3.89.43 5.36 5.2.13 11.28-.28 8.89-3.23-4-4.89-4.07-24.06-4.07-24.06zM488.67 818.46a17.93 17.93 0 00-2.23-2c-4.58-3.51-11.64-7.21-18.79-11.47a29 29 0 00-14.54 9.49c-3.29 4.14-3.56 10.9-4.45 12 3.65 3.82 40.74-.7 41.45-4.52 0 0 0-.08 0-.13A5.44 5.44 0 00488.67 818.46z"></path><path fill="#7c2f13" d="M468.26,828.66c11.33-1.6,23.19-3.12,21.8-8-34.73,12.23-50.18-.89-53.18-5s-9.33-3.92-9.33-3.92c-11.53,1-18.05-2.25-21.37-4.87,0,.72,0,1.42.08,2.1.66,9.1,1.11,11.67,1.11,11.67l14.77.56-.37-3.89s8.59-.38,13.62,3.94S454.15,830.65,468.26,828.66Z"></path></g><g data-name="Doctor/Head/Female"><circle cx="363.4" cy="340.77" r="24.98"></circle><path d="M393.65,345.4c-30,7-37.08-8.44-37.92-21.44s4.11-34.75,23-41.81S454.69,331.18,393.65,345.4Z"></path><path fill="#ea9d7d" d="M395.55,280.82c-12.39,2.41-20,18.2-18.25,36.53h-.09c-3.39.66-5.39,5-4.47,9.77s4.42,8,7.81,7.38a4.74,4.74,0,0,0,1.29-.47c6.89,13.87,20.26,21.6,31.26,19.45,13.65-2.66,18.49-19.51,14.46-40.14S409.21,278.15,395.55,280.82Z"></path><path fill="#ea9d7d" d="M408.75,364.32c-.63-2.22,1.95-7.61,3.6-10.72-10.86,1.66-23.78-6-30.51-19.56a4.74,4.74,0,0,1-1.29.47s-1.06,28.21-7.17,28.56c-7.15,6.13-30.51,26.89-25.75,36.53,4,8.07,25.56,3.91,57.71-2.31a16.14,16.14,0,0,0,8.39-4c6.75-6.43,4.91-18,4-20.61C416.46,369.28,409.65,367.51,408.75,364.32Z"></path><path fill="#d18165" d="M379.64,345.74c.71-6,.91-11.23.91-11.23a4.74,4.74,0,0,0,1.29-.47c6.73,13.56,19.65,21.22,30.51,19.56a46.91,46.91,0,0,0-3.13,7.06l-.83.19C398.6,362.76,386.94,356.85,379.64,345.74Z"></path><path fill="#be3e5f" d="M409.06,338.91a83.48,83.48,0,0,1,11.29,1.55s-.37-5.37-4.85-6S409.06,338.91,409.06,338.91Z"></path><path fill="#d18165" d="M418.64,312c.45,2,.84,4,1.39,5.93a11.78,11.78,0,0,0,1.06,2.6c.19.34.54.81.82,1.23s.56.89.83,1.37a6.42,6.42,0,0,1,.93,3.45,3,3,0,0,1-.94,1.91,3.78,3.78,0,0,1-1.69.88,12.39,12.39,0,0,1-6.34-.44,24.5,24.5,0,0,0,5.84-1,3.14,3.14,0,0,0,.95-.64,1.16,1.16,0,0,0,.29-.82,5.55,5.55,0,0,0-.8-2.36c-.22-.42-.48-.84-.74-1.26s-.53-.8-.81-1.38a10.71,10.71,0,0,1-.92-3.18A19.6,19.6,0,0,1,418.64,312Z"></path><path d="M400.51 309.33a43.59 43.59 0 006-.58 17.3 17.3 0 002.83-.73c1-.29 1.83-.74 2.85-1.15a6.85 6.85 0 01-2.34 2.23 8.82 8.82 0 01-3.06 1.16 10.37 10.37 0 01-3.24.07A8.11 8.11 0 01400.51 309.33zM425.69 306.24c.17.49.33 1 .47 1.47l-.14 0a10.37 10.37 0 01-3.24.07 7.94 7.94 0 01-3.06-1A42.88 42.88 0 00425.69 306.24zM425 319.59a1.54 1.54 0 01-1.8-1.21l-.85-4.4a1.53 1.53 0 113-.59l.86 4.4A1.54 1.54 0 01425 319.59zM409.55 320.53a1.54 1.54 0 01-1.8-1.21l-.86-4.4a1.53 1.53 0 113-.59l.86 4.4A1.54 1.54 0 01409.55 320.53z"></path><path fill="#d18165" d="M377.09,321.57a13.69,13.69,0,0,0-.07,5,9.37,9.37,0,0,0,.75,2.24c.14.39.38.75.56,1.17a12.3,12.3,0,0,1,.65,1.26,5.84,5.84,0,0,1-1.36-.59,6.05,6.05,0,0,1-1.15-1,5.65,5.65,0,0,1-1.41-2.72,5.45,5.45,0,0,1,.23-3.08A4.71,4.71,0,0,1,377.09,321.57Z"></path><path d="M422.73,299.09s-6.27-9.75-8.09-7.57-5.31,8.06-17.23,7.43c0,0-8,10.4-9.65,22.61s-10.55-4.2-10.55-4.2-11.4-28.4.91-35.16,24.65-6.91,36.94,0S422.73,299.09,422.73,299.09Z"></path><path fill="#d18165" d="M373.38,363.07c3.73-.22,5.57-10.78,6.45-19l5.47,2.46,4.69,9.8s-9,2-4.69,11.2c3.83,8.29,14,27.11,28.7,25.5-2.13,1.18-5.07,2.7-8.66,4.26-23.54,10.25-55.67,13.48-60.35,4.23S363.69,371.29,373.38,363.07Z"></path><path fill="#37d6ba" d="M391,310.42s16.3-8.7,33.29-8.85c0,0,5.23-20.08-20.69-24s-48.3,15.09-47.91,39.28c0,0,6,10.58,17.1,10.31S381.4,311.52,391,310.42Z"></path><path fill="#0aa68b" d="M424.42,300.65a5.13,5.13,0,0,0-1.37-1.12,5.63,5.63,0,0,0-1.89-.54c-1.57-.27-2.46-.42-3,.09s-.13.67-.54,1.17a2,2,0,0,1-2.16.63c-.6-.28-.42-.85-1.08-1.26a2.12,2.12,0,0,0-2.07,0c-.67.38-.49.86-1.17,1.53a4,4,0,0,1-2.61,1c-1.32,0-1.55-.67-2.43-.45s-.74.88-2.07,2.07c-2.17,1.93-2.78,1.84-3,1.8-.79-.18-.91-1.1-1.8-1.17a2,2,0,0,0-1.26.45c-1.3.79-1.43,1.55-2.16,2-.54.31-1.5.5-3.33-.36,0,0-1.87-.59-2.43,0s.48,1.64-.09,2.52a2.08,2.08,0,0,1-1.53.72c-1.35.08-2.18-.62-3-.7-.44-.05.26.76-.19,1.78-.18.4-.6,1.35-1.35,1.53-1,.23-1.71-1-2.34-.63-.47.25-.22,1.06-.72,1.26-.68.27-1.25-.7-2-.63-1.44.13-1.27,4-3.06,5.13-2.17,1.32-6.42-1.93-7.38-2.7-6.4-5.09-7.73-11.61-9.54-14a37.46,37.46,0,0,0-3.33,16.12s6,10.58,17.1,10.31,8.66-15.61,18.21-16.71c0,0,16.3-8.7,33.29-8.85C424.24,301.57,424.33,301.23,424.42,300.65Z"></path><path fill="#0aa68b" d="M386.83 309.45s.15 1.78-.73 2.3a29.25 29.25 0 00-2.73 2.09s-3.66-.93-5.43-6.75a24.85 24.85 0 01-.73-6.47.67.67 0 011.27-.28C380 303.62 382.77 308.51 386.83 309.45zM396.44 306.93s-.52 1.45-1.54 1.58a28.1 28.1 0 00-3.33.84s-3-2.31-2.31-8.35a24.36 24.36 0 011.87-6.19.67.67 0 011.28.25C392.44 298.72 393.07 304.46 396.44 306.93zM411.52 300.74s.88 1.27 1.9 1.12 4.11-.29 4.11-.29 1.61-2.77-.62-8.43a24.65 24.65 0 00-3.42-5.49.67.67 0 00-1.17.58C413.24 291.77 414.13 297.47 411.52 300.74z"></path></g><g data-name="Doctor/Torso"><path fill="#ea9d7d" d="M515.82,477.13l10.33.42s2.25-1.79,5.29-4.11c5.76-4.39,14.38-10.72,16.15-10.61,2.71.16,7.42,2.13-4.3,11.16l.09.08c.39.3,2.2,1.48,6.83,1.76,5.33.33,23.28,1.55,26.2,2.65,1.58.59,5.13,5.35-21.49,4.41a1.44,1.44,0,0,0-1.5,1.61c.09.49.45.93,1.41,1,2.41.14,23.22.49,22.86,4.25-.26,2.74-5.71,2.07-24,1.26,0,0-2.9.75-.59,2.24.8.51,21.42,2.44,22.43,4.07s3.66,4.31-27.27.93c0,0-.55.31,2.15,1.88,2.86,1.67,11.32,3.92,13.48,7.07s-4.12.65-20-4.68l-22.28-2.83c-14.73,2.07-69.85,6.78-83.54-7.45-12.83-13.32-19.73-61-19.73-61l31.37-1,13.14,35.54a6.89,6.89,0,0,0,5.48,4.44l49.33,7.12"></path><path fill="none" stroke="#2f170b" stroke-miterlimit="10" stroke-width="2" d="M543.61,474s-4.32,16.18-19.09,11.71"></path><path fill="#37d6ba" d="M455.17,432.51l-12-37.56a39.07,39.07,0,0,0-13-19,28.32,28.32,0,0,0-5.07-3.22,1,1,0,0,0-1.43.94l1.9,58.81,3.92,46.75a25.84,25.84,0,0,0,27.35,24.9l59.41-2.64-.51-24.39L472.9,466a10.9,10.9,0,0,1-7.43-6.64Z"></path><path fill="#0aa68b" d="M424.15,386.17a3.31,3.31,0,0,1,2.07-1c1.09,0,3.67.42,8.16,9.84a59.8,59.8,0,0,1,4.34,11.53c4.17,19.65,6.12,54.22,14.12,69.08,5.84,10.87,21.06,22.61,63.46,24.15l0,1.77-59.41,2.64a25.84,25.84,0,0,1-27.35-24.9l-3.15-37.64c1.26-3.5,2.41-6.63,3.35-9.11h-4.12Z"></path><path fill="#ea9d7d" d="M279.69,566.83a24.27,24.27,0,0,0,.73-5.5c.23-15.57,1.71-75,10.68-102,2.85-8.62,29.06-52.53,29.06-52.53l37.44,7.91-33,54.79a27.12,27.12,0,0,0-3.19,7.83L301.33,563a8.1,8.1,0,0,0,1.49,6.82c4.23,5.43,12.61,16.46,12.47,18.48-.18,2.71-2.18,7.42-11.13-4.37,0,0-1.53,1.58-1.89,6.91s-1.12,25.85-2.81,26.19-5.49,5.22-4.23-22.66c0,0-2.47-1.37-2.63,1s-1.55,25.3-4.4,22.84-2-5.73-1.12-24c0,0-1.87-1.49-2.23-.6s-2.41,22.51-4.22,22.39-4.32,3.64-.75-27.26c0,0-1-.52-2.13,2.58s-5.51,16.71-6.92,13-.63-4.13,4.81-19.94l4.05-17.57Z"></path><path fill="#d18165" d="M357.6,414.69l-8.83-1.86c-6.6,8.37-14.8,14.45-25.49,30.09-8.32,12.19-13.71,24.59-16.1,29.83-6.56,14.37-5.23,21.69-9.6,57.12-2.63,21.28-3.94,31.92-5.32,37.48,0,0-8.09,37.13-5.06,49.73a1.7,1.7,0,0,0,1,1.12c2.85,2.46,4.23-20.43,4.4-22.84s2.63-1,2.63-1c-1.26,27.88,2.55,23,4.23,22.66s2.45-20.76,2.81-26.15h0v0c.36-5.33,1.89-6.91,1.89-6.91,8.95,11.79,10.95,7.08,11.13,4.37.14-2-8.24-13-12.47-18.48a8.1,8.1,0,0,1-1.49-6.82l20.11-85.65a27.12,27.12,0,0,1,3.19-7.83Z"></path><path fill="#37d6ba" d="M447.66,603.82a8.09,8.09,0,0,1-5.79,2.34H324.58a8.43,8.43,0,0,1-8.34-9.69l40.23-226.21,16.68-6.32c2.4-1.31,3.43-5.3,3.83-7.58a1.67,1.67,0,0,1,1.93-1.34l29.89,5.35a1.65,1.65,0,0,1,1.34,1.93c-.34,1.91-.58,4.83,1.12,5.09l12.44,4.73a10.89,10.89,0,0,1,8.3,11.15l-.15,4.51c-.48,14.64-3.83,65.29-.35,100.45,5.15,51.89,17.88,92.2,17.17,113.81C448.67,602.22,448.64,602.83,447.66,603.82Z"></path><path fill="#37d6ba" d="M276.68,560.92c-1.42-1,3.4-57,8.16-87.86,1.67-10.83,6.77-27.37,12.72-36.58,0,0,19.52-33.63,32.4-48.48,4.6-5.3,13.13-15,26.51-17.74L364.09,410l-37.37,61.64c-.42.64-21.93,89.72-22.56,89.28Z"></path><path fill="#0aa68b" d="M362.92,407.89a2.47,2.47,0,0,1,.93,2l.06.39-16.35,27h0l-20.84,34.37c-.42.64-21.93,89.72-22.56,89.28h-10l.06-.26c13.08-58.61,19.67-88,21.78-93.22C330.12,432.73,358.06,405.2,362.92,407.89Z"></path><line x1="516.38" x2="516.38" y1="477.13" y2="499.32" fill="none" stroke="#2f170b" stroke-linecap="round" stroke-linejoin="round" stroke-width="6"></line><path fill="#0aa68b" d="M316.24 596.47l.27-1.54 28.75-161.45c6.73-14 15.33-26.44 17.66-25.59 2 .74.93 10.09 1 11.19 3 50.35 66.21 22.29 66.85 21.24-.86 4.35-2.94 11.26-8.64 16.74-13.65 13.13-36.34 6.88-43.06 5l-.31-.09a20.3 20.3 0 00-25.91 20.92c3.23 43 26.08 72.84 26.08 72.84 19.92 26 51.89 38.51 69.8 44.12a15.29 15.29 0 01-.05 2.16c-.43 2.73-4.26 4.12-6.68 4.24-10.74.5-57.5-.12-57.5-.12H324.58A8.43 8.43 0 01316.24 596.47zM411.26 367.39a49.42 49.42 0 01-9.25.67 71.75 71.75 0 01-9.26-.71c-1.53-.21-3.05-.51-4.57-.8s-3-.66-4.51-1.14a48.59 48.59 0 01-8.66-3.34c3.05.59 6 1.29 9 1.82s6 1.08 9 1.48 6 .81 9.06 1.14S408.18 367.11 411.26 367.39z"></path></g></g></svg>